<svg width="245.956299" height="242.800049" viewBox="0 0 245.956 242.8" fill="none" xmlns="http://www.w3.org/2000/svg" xmlns:xlink="http://www.w3.org/1999/xlink">
	<desc>
			Created with Pixso.
	</desc>
	<defs>
		<filter id="filter_2_14878_dd" x="0.000000" y="86.390625" width="224.134888" height="106.842529" filterUnits="userSpaceOnUse" color-interpolation-filters="sRGB">
			<feFlood flood-opacity="0" result="BackgroundImageFix"/>
			<feBlend mode="normal" in="SourceGraphic" in2="BackgroundImageFix" result="shape"/>
			<feGaussianBlur stdDeviation="0" result="effect_layerBlur_1"/>
		</filter>
		<filter id="filter_2_14933_dd" x="90.036133" y="203.222656" width="25.071899" height="14.451904" filterUnits="userSpaceOnUse" color-interpolation-filters="sRGB">
			<feFlood flood-opacity="0" result="BackgroundImageFix"/>
			<feBlend mode="normal" in="SourceGraphic" in2="BackgroundImageFix" result="shape"/>
			<feGaussianBlur stdDeviation="0" result="effect_layerBlur_1"/>
		</filter>
		<filter id="filter_2_14936_dd" x="113.311646" y="140.458984" width="86.776367" height="77.214355" filterUnits="userSpaceOnUse" color-interpolation-filters="sRGB">
			<feFlood flood-opacity="0" result="BackgroundImageFix"/>
			<feBlend mode="normal" in="SourceGraphic" in2="BackgroundImageFix" result="shape"/>
			<feGaussianBlur stdDeviation="0" result="effect_layerBlur_1"/>
		</filter>
		<filter id="filter_2_14941_dd" x="48.202148" y="173.322266" width="22.792236" height="33.053955" filterUnits="userSpaceOnUse" color-interpolation-filters="sRGB">
			<feFlood flood-opacity="0" result="BackgroundImageFix"/>
			<feBlend mode="normal" in="SourceGraphic" in2="BackgroundImageFix" result="shape"/>
			<feGaussianBlur stdDeviation="0" result="effect_layerBlur_1"/>
		</filter>
		<filter id="filter_2_14944_dd" x="39.233398" y="122.758789" width="99.215088" height="98.074707" filterUnits="userSpaceOnUse" color-interpolation-filters="sRGB">
			<feFlood flood-opacity="0" result="BackgroundImageFix"/>
			<feBlend mode="normal" in="SourceGraphic" in2="BackgroundImageFix" result="shape"/>
			<feGaussianBlur stdDeviation="0" result="effect_layerBlur_1"/>
		</filter>
	</defs>
	<g filter="url(#filter_2_14878_dd)">
		<path id="Vector" d="M89.089 90.3716C85.7593 93.5701 84.4896 98.5486 87.6669 102.391C90.6575 106.007 96.4436 106.774 100.18 103.892C109.197 96.9314 99.7988 84.0894 90.0682 86.7473C88.2666 87.239 88.7139 89.8079 90.4943 89.9097C93.3407 90.0728 96.3865 90.1787 98.6586 92.1731C101.1 94.314 101.153 97.9382 99.1503 100.401C93.8473 106.923 84.6359 97.3193 90.2059 91.4885C90.9097 90.7532 89.8245 89.6658 89.089 90.3716Z" fill="#8AA9FC" fill-opacity="1.000000" fill-rule="nonzero"/>
		<path id="Vector" d="M181.964 101.391C183.185 105.925 184.53 110.41 185.927 114.893C186.264 115.971 187.284 116.309 188.21 115.679C191.853 113.203 195.501 110.77 198.952 108.03C199.617 107.502 199.469 106.44 198.814 105.991C194.772 103.216 189.312 99.1216 184.183 99.0918C182.877 99.0854 181.968 100.921 183.291 101.684C185.361 102.877 187.841 103.301 190.052 104.221C192.604 105.281 195.13 106.527 197.383 108.136C197.434 107.392 197.483 106.648 197.534 105.904C193.676 108.28 190.043 110.942 186.374 113.595C187.097 113.74 187.818 113.886 188.541 114.03C186.976 109.603 185.368 105.204 183.632 100.84C183.265 99.9207 181.703 100.425 181.964 101.391Z" fill="#528AA3" fill-opacity="1.000000" fill-rule="nonzero"/>
		<path id="Vector" d="M207.548 125.405C212.963 122.811 218.508 119.826 223.389 116.325C225.182 115.038 223.416 112.529 221.526 113.519C216.308 116.251 211.223 119.782 206.568 123.383C205.634 124.106 206.32 125.992 207.548 125.405Z" fill="#EDC483" fill-opacity="1.000000" fill-rule="nonzero"/>
		<path id="Vector" d="M7.99487 141.961C6.86304 136.065 5.3877 129.944 3.24072 124.333C2.45239 122.271 -0.423828 123.341 0.0529785 125.42C1.36914 131.162 3.49097 136.978 5.79053 142.396C6.25244 143.483 8.25122 143.296 7.99487 141.961Z" fill="#E8947E" fill-opacity="1.000000" fill-rule="nonzero"/>
		<path id="Vector" d="M25.0437 89.7495C24.942 89.6606 24.8424 89.5693 24.7407 89.4805C23.3989 88.2935 21.1968 88.0581 19.8914 89.4805C18.573 90.9175 18.6196 92.8906 19.8914 94.3276C19.9824 94.4294 20.0735 94.5312 20.1626 94.6328C21.3623 95.9895 23.8357 95.9492 25.0437 94.6328C26.2455 93.323 26.4893 91.0276 25.0437 89.7495Z" fill="#251A51" fill-opacity="1.000000" fill-rule="nonzero"/>
		<path id="Vector" d="M42.5321 137.897C42.8055 136.079 42.7546 134.352 43.7721 132.749C45.7983 129.56 48.6766 130.358 51.4637 131.764C54.3038 133.194 56.9766 134.051 60.0647 132.715C64.8865 130.628 67.1501 123.356 62.5487 119.935C61.0587 118.826 59.592 120.656 59.7913 122.056C60.071 124.013 61.0417 126.166 59.3652 127.847C57.1249 130.096 54.4946 128.207 52.2585 127.198C49.8423 126.109 47.2777 125.869 44.7852 126.876C40.4932 128.612 37.3817 134.428 40.7878 138.357C41.2689 138.911 42.4177 138.663 42.5321 137.897Z" fill="#6E3281" fill-opacity="1.000000" fill-rule="nonzero"/>
		<path id="Vector" d="M105.887 141.413C111.679 139.834 117.671 137.895 123.101 135.326C125.096 134.383 123.809 131.598 121.772 132.231C116.147 133.982 110.514 136.542 105.287 139.249C104.238 139.792 104.575 141.771 105.887 141.413Z" fill="#EDC483" fill-opacity="1.000000" fill-rule="nonzero"/>
		<path id="Vector" d="M77.1415 147.446C78.3623 151.98 79.7083 156.465 81.105 160.947C81.442 162.026 82.4614 162.365 83.3877 161.736C87.0311 159.26 90.6766 156.825 94.1293 154.084C94.7927 153.557 94.6465 152.495 93.9915 152.045C89.9496 149.271 84.4897 145.176 79.3606 145.146C78.0549 145.14 77.1458 146.976 78.4683 147.739C80.5391 148.932 83.0188 149.356 85.2295 150.276C87.7814 151.335 90.3079 152.582 92.5608 154.19C92.6117 153.447 92.6605 152.703 92.7113 151.958C88.8539 154.334 85.2211 156.997 81.5521 159.65C82.2749 159.794 82.9956 159.941 83.7183 160.085C82.1542 155.657 80.5454 151.259 78.8096 146.895C78.4429 145.973 76.8807 146.48 77.1415 147.446Z" fill="#EDE6F5" fill-opacity="1.000000" fill-rule="nonzero"/>
		<path id="Vector" d="M85.1089 192.825C91.0944 193.271 97.3871 193.447 103.364 192.857C105.56 192.641 105.291 189.644 103.159 189.562C97.2727 189.33 91.105 189.845 85.2721 190.63C84.1021 190.787 83.7524 192.724 85.1089 192.825Z" fill="#6E3281" fill-opacity="1.000000" fill-rule="nonzero"/>
	</g>
	<path id="Vector" d="M164.303 83.7383C164.642 79.0691 164.979 74.3999 165.318 69.7307C168.987 68.6965 170.896 64.0005 169.431 60.4802C167.967 56.96 163.807 54.9832 160.032 55.5225C162.414 53.9004 163.791 52.3662 161.835 50.2493C159.88 48.1326 156.816 47.446 153.936 47.335C151.056 47.2239 148.143 47.5732 145.309 47.0464C142.8 46.5803 140.339 45.4314 137.806 45.7505C135.274 46.0696 132.852 48.9194 134.218 51.0774C130.565 50.5415 128.561 48.4946 125.315 50.2566C122.069 52.0186 120.44 57.0317 123.229 59.4514C121.386 60.3906 120.926 63.0576 121.962 64.8484C122.998 66.6389 125.12 67.5781 127.183 67.7268C129.246 67.8757 131.291 67.3523 133.293 66.8342L164.303 83.7383Z" fill="#251A51" fill-opacity="1.000000" fill-rule="nonzero"/>
	<path id="Vector" d="M163.911 225.249C163.911 225.249 115.76 236.448 96.4189 217.108L103.341 170.911C105.444 157.634 104.191 132.083 114.361 123.019C116.329 121.264 118.221 120.391 118.221 120.391C125.355 116.946 138.047 115.086 150.232 115.039C165.033 114.982 180.268 126.175 184.156 140.459L168.136 177.934L163.911 225.249Z" fill="#528AA3" fill-opacity="1.000000" fill-rule="nonzero"/>
	<path id="Vector" d="M139.841 162.041C146.386 161.676 152.85 161.962 159.39 162.048C159.96 162.056 159.928 161.247 159.39 161.183C152.947 160.412 146.292 160.72 139.841 161.274C139.355 161.315 139.342 162.068 139.841 162.041Z" fill="#1A3066" fill-opacity="1.000000" fill-rule="nonzero"/>
	<path id="Vector" d="M169.158 125.322C147.045 127.318 162.168 159.923 167.835 169.796C168.151 170.346 168.999 169.851 168.687 169.298C163.053 159.325 147.977 128.983 169.23 125.861C169.533 125.816 169.466 125.293 169.158 125.322Z" fill="#1A3066" fill-opacity="1.000000" fill-rule="nonzero"/>
	<path id="Vector" d="M107.87 143.962C105.148 154.82 103.319 166.112 102.646 177.293C102.617 177.756 103.398 177.874 103.465 177.404C105.047 166.288 106.637 155.2 108.421 144.113C108.478 143.758 107.962 143.598 107.87 143.962Z" fill="#1A3066" fill-opacity="1.000000" fill-rule="nonzero"/>
	<path id="Vector" d="M158.296 92.4121L152.972 120.802C151.773 127.197 145.466 131.291 139.137 129.78C133.271 128.38 129.514 122.65 130.568 116.711L133.457 100.44L158.296 92.4121Z" fill="#F6AEA6" fill-opacity="1.000000" fill-rule="nonzero"/>
	<path id="Vector" d="M163.707 74.6519L162.97 84.3577C162.97 84.3577 171.222 85.4707 168.87 92.9971C166.519 100.523 160.873 97.2307 160.873 97.2307C160.873 97.2307 159.462 116.518 139.705 110.403C123.98 105.536 124.941 85.1733 126.938 67.814C127.712 61.0889 134.071 56.4663 140.716 57.7605L152.594 60.0745C159.46 61.4116 164.237 67.6777 163.707 74.6519Z" fill="#F6AEA6" fill-opacity="1.000000" fill-rule="nonzero"/>
	<path id="Vector" d="M165.247 89.0039C164.849 89.9019 164.451 90.7981 164.053 91.696C164.358 91.1887 165.22 91.2676 165.536 91.7678C165.851 92.2678 165.667 92.9722 165.235 93.3755C164.803 93.7788 164.184 93.9294 163.593 93.9419" stroke="#251A51" stroke-opacity="1.000000" stroke-width="0.089619"/>
	<g filter="url(#filter_2_14933_dd)">
		<path id="Vector" d="M115.108 203.223C115.108 203.223 89.5433 207.698 90.0433 211.014C90.5435 214.33 92.3394 217.675 92.3394 217.675L115.108 217.139L115.108 203.223Z" fill="#F6AEA6" fill-opacity="1.000000" fill-rule="nonzero"/>
	</g>
	<g filter="url(#filter_2_14936_dd)">
		<path id="Vector" d="M159.932 146.214C159.932 146.214 181.499 187.762 170.79 189.974C135.557 197.252 115.108 203.221 115.108 203.221L113.312 216.904C113.837 218.972 184.593 217.182 192.974 207.677C198.891 200.964 206.756 185.453 190.022 151.88L184.937 140.459L159.932 146.214Z" fill="#F6AEA6" fill-opacity="1.000000" fill-rule="nonzero"/>
	</g>
	<g filter="url(#filter_2_14941_dd)">
		<path id="Vector" d="M53.7024 202.708C53.7024 202.708 52.9894 187.88 55.8115 187.441C58.6337 187.003 64.1775 185.661 64.1775 185.661C64.1775 185.661 61.7429 171.932 63.7538 173.771C65.7646 175.61 70.1504 193.847 66.0443 203.918L53.7024 202.708Z" fill="#F6AEA6" fill-opacity="1.000000" fill-rule="nonzero"/>
	</g>
	<g filter="url(#filter_2_14944_dd)">
		<path id="Vector" d="M114.531 122.759L73.3865 166.191L58.9863 208.018L65.5522 220.053C65.5522 220.053 76.4685 203.338 82.9199 186.844C91.1147 165.894 107.782 161.423 107.782 161.423L114.531 122.759Z" fill="#F6AEA6" fill-opacity="1.000000" fill-rule="nonzero"/>
	</g>
	<path id="Vector" d="M125.293 117.908C106.541 123.882 100.812 142.962 74.416 153.973L87.1903 181.862L108.219 164.619L125.293 117.908Z" fill="#528AA3" fill-opacity="1.000000" fill-rule="nonzero"/>
	<path id="Vector" d="M155.921 140.459L169.547 172.119L200.279 166.509L179.575 130.852L155.062 140.459L155.921 140.459Z" fill="#528AA3" fill-opacity="1.000000" fill-rule="nonzero"/>
	<path id="Vector" d="M142.073 218.48L141.877 214.94L89.2261 211.719L71.5675 164.486L13.7793 167.664L33.4938 218.742L142.073 218.48Z" fill="#9B9B9B" fill-opacity="1.000000" fill-rule="nonzero"/>
	<path id="Vector" d="M45.6403 190.155C45.7693 192.517 47.7911 194.325 50.1536 194.196C52.5159 194.065 54.3262 192.045 54.1953 189.683C54.0663 187.321 52.0463 185.512 49.6838 185.641C47.3215 185.772 45.5112 187.792 45.6403 190.155Z" fill="#FFFFFF" fill-opacity="0.410000" fill-rule="nonzero"/>
	<path id="Vector" d="M43.9292 190.247C44.1102 193.556 46.9404 196.09 50.2491 195.907C53.5579 195.727 56.0924 192.898 55.9095 189.589C55.7267 186.281 52.8983 183.744 49.5896 183.927C46.2809 184.108 43.7465 186.938 43.9292 190.247Z" fill="#FFFFFF" fill-opacity="0.410000" fill-rule="nonzero"/>
	<path id="Vector" d="M139.853 75.4531C139.561 80.1062 139.271 84.761 138.979 89.4158C138.914 90.4536 138.866 91.5811 139.269 92.4539C139.672 93.3267 140.724 93.6243 141.115 92.7388" stroke="#251A51" stroke-opacity="1.000000" stroke-width="0.896191"/>
	<path id="Vector" d="M150.789 107.261C148.034 109.17 144.669 110.183 141.319 110.113C137.969 110.043 134.648 108.889 131.978 106.865" stroke="#251A51" stroke-opacity="1.000000" stroke-width="0.089619"/>
	<path id="Vector" d="M146.567 94.8457C145.808 96.4529 145.149 97.554 143.444 98.1025C141.74 98.6509 140.185 98.1265 138.722 97.1213" stroke="#251A51" stroke-opacity="1.000000" stroke-width="1.792383"/>
	<path id="Vector" d="M151.078 76.4653C150.042 75.4832 148.492 75.0764 147.108 75.4224" stroke="#251A51" stroke-opacity="1.000000" stroke-width="0.896191"/>
	<path id="Vector" d="M134.543 72.7825C133.195 71.9956 131.493 71.8467 130.028 72.3882" stroke="#251A51" stroke-opacity="1.000000" stroke-width="0.896191"/>
	<path id="Vector" d="M162.971 84.3613C157.456 78.9861 155.836 70.0276 154.339 62.4729C149.233 66.1919 142.208 67.1062 136.319 64.8191C134.471 66.9915 132.298 68.8896 129.898 70.4292C129.215 70.8665 128.407 71.2913 127.631 71.0566C126.706 70.7769 126.294 69.7158 126.073 68.7749C125.369 65.7617 125.342 62.5374 126.392 59.6265C127.443 56.7156 129.647 54.1597 132.533 53.043C135.618 51.8494 139.09 52.3691 142.291 53.199C147.114 54.4502 151.764 56.3716 156.064 58.8899C160.283 61.3616 164.337 64.6326 166.128 69.1836C167.918 73.7344 167.909 82.5798 163.593 84.8811L162.971 84.3613Z" fill="#251A51" fill-opacity="1.000000" fill-rule="nonzero"/>
	<path id="Vector" d="M149.983 81.6113C149.911 82.6042 149.841 83.5991 149.77 84.592" stroke="#251A51" stroke-opacity="1.000000" stroke-width="1.792372"/>
	<path id="Vector" d="M134.119 79.584C134.047 80.5769 133.977 81.5718 133.905 82.5647" stroke="#251A51" stroke-opacity="1.000000" stroke-width="1.792372"/>
	<path id="Vector" d="M177.7 0C177.7 0 177.7 0 177.7 0C177.7 0 177.7 0 177.7 0C177.7 0 177.7 0 177.7 0L177.7 0C177.7 0 177.7 0 177.7 0C177.7 0 177.7 0 177.7 0C177.7 0 177.7 0 177.7 0Z" fill="#FFBB7D" fill-opacity="1.000000" fill-rule="nonzero"/>
	<path id="Vector" d="M177.7 0C177.7 0 177.7 0 177.7 0C177.7 0 177.7 0 177.7 0C177.7 0 177.7 0 177.7 0C177.7 0 177.7 0 177.7 0Z" fill="#6338A1" fill-opacity="1.000000" fill-rule="nonzero"/>
	<path id="Vector" d="M177.7 0C177.7 0 177.7 0 177.7 0C177.7 0 177.7 0 177.7 0C177.7 0 177.7 0 177.7 0C177.7 0 177.7 0 177.7 0C177.7 0 177.7 0 177.7 0Z" fill="#6338A1" fill-opacity="1.000000" fill-rule="nonzero"/>
	<path id="Vector" d="M177.7 0C177.7 0 177.7 0 177.7 0C177.7 0 177.7 0 177.7 0C177.7 0 177.7 0 177.7 0C177.7 0 177.7 0 177.7 0Z" fill="#6338A1" fill-opacity="1.000000" fill-rule="nonzero"/>
	<path id="Vector" d="M177.7 0C177.7 0 177.7 0 177.7 0C177.7 0 177.7 0 177.7 0C177.7 0 177.7 0 177.7 0C177.7 0 177.7 0 177.7 0C177.7 0 177.7 0 177.7 0C177.7 0 177.7 0 177.7 0C177.7 0 177.7 0 177.7 0C177.7 0 177.7 0 177.7 0C177.7 0 177.7 0 177.7 0C177.7 0 177.7 0 177.7 0C177.7 0 177.7 0 177.7 0C177.7 0 177.7 0 177.7 0C177.7 0 177.7 0 177.7 0C177.7 0 177.7 0 177.7 0C177.7 0 177.7 0 177.7 0C177.7 0 177.7 0 177.7 0C177.7 0 177.7 0 177.7 0C177.7 0 177.7 0 177.7 0C177.7 0 177.7 0 177.7 0C177.7 0 177.7 0 177.7 0Z" fill="#6338A1" fill-opacity="1.000000" fill-rule="nonzero"/>
	<path id="Vector" d="M177.7 0C177.7 0 177.7 0 177.7 0" stroke="#FFBB7D" stroke-opacity="1.000000" stroke-width="0.500000"/>
	<path id="Vector" d="M177.7 0C177.7 0 177.7 0 177.7 0" stroke="#FFBB7D" stroke-opacity="1.000000" stroke-width="0.500000"/>
	<path id="Vector" d="M177.7 0C177.7 0 177.7 0 177.7 0" stroke="#FFBB7D" stroke-opacity="1.000000" stroke-width="0.500000"/>
	<path id="Vector" d="M177.7 0C177.7 0 177.7 0 177.7 0" stroke="#FFBB7D" stroke-opacity="1.000000" stroke-width="0.500000"/>
	<path id="Vector" d="M177.7 0C177.7 0 177.7 0 177.7 0" stroke="#FFBB7D" stroke-opacity="1.000000" stroke-width="0.500000"/>
	<path id="Vector" d="M177.7 0C177.7 0 177.7 0 177.7 0" stroke="#FFBB7D" stroke-opacity="1.000000" stroke-width="0.500000"/>
	<path id="Vector" d="M177.7 0C177.7 0 177.7 0 177.7 0" stroke="#FFBB7D" stroke-opacity="1.000000" stroke-width="0.500000"/>
	<path id="Vector" d="M177.7 0C177.7 0 177.7 0 177.7 0" stroke="#FFBB7D" stroke-opacity="1.000000" stroke-width="0.500000"/>
	<path id="Vector" d="M177.7 0C177.7 0 177.7 0 177.7 0" stroke="#FFBB7D" stroke-opacity="1.000000" stroke-width="0.500000"/>
	<path id="Vector" d="M181.852 46.2073C181.148 47.5718 183.448 82.8174 183.448 82.8174L200.803 81.3757L198.779 90.6812L207.26 81.1179L224.243 79.1553L223.21 44.9922L181.852 46.2073Z" fill="#386377" fill-opacity="1.000000" fill-rule="nonzero"/>
	<path id="Vector" d="M191.349 61.9785L194.998 74.6643L200.104 73.6699L199.606 71.1162L201.055 70.2454L203.791 72.95L212.441 71.2654L213.562 67.9548L211.101 67.4043L214.281 66.344L213.588 62.7979L210.839 63.0391L214.614 62.0098L213.756 57.613L204.964 59.3271C204.964 59.3271 205.533 53.1794 202.935 51.1836L200.95 51.5703C200.95 51.5703 201.621 53.5017 201.558 54.6912C201.495 55.8804 199.766 61.3689 199.766 61.3689L197.069 62.6301L196.427 60.8425L191.349 61.9785Z" fill="#FFFFFF" fill-opacity="1.000000" fill-rule="nonzero"/>
	<path id="Vector" d="M0.469727 218.049L232.374 215.154L245.956 222.286C245.956 222.286 67.9294 271.149 0.469727 218.049Z" fill="#84818B" fill-opacity="0.060000" fill-rule="nonzero"/>
</svg>
