<svg width="210" height="29" viewBox="0 0 210 29" fill="none" xmlns="http://www.w3.org/2000/svg">
<path d="M6.06759 7.66001H0.503999C0.2268 7.66001 0 7.43601 0 7.15601V4.88242C0 4.60522 0.2268 4.37842 0.503999 4.37842H15.2404C15.5176 4.37842 15.7444 4.60242 15.7444 4.88242V7.15601C15.7444 7.43321 15.5204 7.66001 15.2404 7.66001H9.67399V23.0124C9.67399 23.2896 9.44999 23.5164 9.16999 23.5164H6.56879C6.29159 23.5164 6.06479 23.2924 6.06479 23.0124V7.66001H6.06759Z" fill="white"/>
<path d="M38.4134 4.88242V20.1788H47.7514C48.0286 20.1788 48.2554 20.4028 48.2554 20.6828V23.0124C48.2554 23.2896 48.0314 23.5164 47.7514 23.5164H35.3082C35.031 23.5164 34.8042 23.2924 34.8042 23.0124V4.88242C34.8042 4.60522 35.0282 4.37842 35.3082 4.37842H37.9094C38.1866 4.37842 38.4134 4.60242 38.4134 4.88242Z" fill="white"/>
<path d="M64.5456 23.5136H51.2289C50.9517 23.5136 50.7249 23.2896 50.7249 23.0096V4.88242C50.7249 4.60522 50.9489 4.37842 51.2289 4.37842H64.5456C64.8228 4.37842 65.0496 4.60242 65.0496 4.88242V7.37441C65.0496 7.65161 64.8228 7.87841 64.5456 7.87841H54.306V12.28H64.162C64.4392 12.28 64.666 12.504 64.666 12.784V15.1388C64.666 15.416 64.442 15.6428 64.162 15.6428H54.306V19.9604H64.5456C64.8228 19.9604 65.0496 20.1844 65.0496 20.4644V23.0124C65.0496 23.2896 64.8228 23.5164 64.5456 23.5164" fill="white"/>
<path d="M209.496 23.5136H196.179C195.902 23.5136 195.675 23.2896 195.675 23.0096V4.88242C195.675 4.60522 195.899 4.37842 196.179 4.37842H209.496C209.773 4.37842 210 4.60242 210 4.88242V7.37441C210 7.65161 209.773 7.87841 209.496 7.87841H199.256V12.28H209.112C209.39 12.28 209.616 12.504 209.616 12.784V15.1388C209.616 15.416 209.392 15.6428 209.112 15.6428H199.256V19.9604H209.496C209.773 19.9604 210 20.1844 210 20.4644V23.0124C210 23.2896 209.773 23.5164 209.496 23.5164" fill="white"/>
<path d="M80.6174 17.2556V4.88242C80.6174 4.60522 80.8414 4.37842 81.1214 4.37842H83.7226C83.9998 4.37842 84.2266 4.60242 84.2266 4.88242V23.0096C84.2266 23.2868 84.0026 23.5136 83.7226 23.5136H81.5442C81.3902 23.5136 81.2474 23.4436 81.1522 23.326L71.1339 10.7764V23.0124C71.1339 23.2896 70.9099 23.5164 70.6299 23.5164H68.0287C67.7515 23.5164 67.5247 23.2924 67.5247 23.0124V4.88242C67.5247 4.60522 67.7487 4.37842 68.0287 4.37842H70.2071C70.3611 4.37842 70.5067 4.44842 70.6019 4.56882L80.6202 17.2528L80.6174 17.2556Z" fill="white"/>
<path d="M92.7669 7.66001H87.2005C86.9233 7.66001 86.6965 7.43601 86.6965 7.15601V4.88242C86.6965 4.60522 86.9233 4.37842 87.2005 4.37842H101.94C102.217 4.37842 102.444 4.60242 102.444 4.88242V7.15601C102.444 7.43321 102.22 7.66001 101.94 7.66001H96.3733V23.0124C96.3733 23.2896 96.1493 23.5164 95.8693 23.5164H93.2681C92.9909 23.5164 92.7641 23.2924 92.7641 23.0124V7.66001H92.7669Z" fill="white"/>
<path d="M122.814 8.79978C122.598 8.91178 122.34 8.84738 122.189 8.66258C121.397 7.70218 119.753 6.86779 117.891 6.86779C115.212 6.86779 113.929 7.98778 113.929 9.41018C113.929 11.079 115.898 11.541 118.194 11.8154C122.184 12.3082 125.902 13.347 125.902 17.911C125.902 22.1754 122.13 24.0066 117.866 24.0066C114.131 24.0066 111.219 22.909 109.726 19.7562C109.609 19.5098 109.707 19.213 109.948 19.087L112.073 17.9866C112.316 17.8606 112.613 17.9558 112.745 18.1966C113.711 19.9858 115.769 20.781 117.919 20.781C120.187 20.781 122.321 19.9886 122.321 17.911C122.321 16.1078 120.436 15.3686 117.891 15.0942C113.982 14.6294 110.373 13.5906 110.373 9.29818C110.373 5.36139 114.254 3.74859 117.782 3.72339C120.596 3.72339 123.505 4.47939 125.04 7.04698C125.191 7.29898 125.098 7.62658 124.838 7.75818L122.814 8.79978Z" fill="white"/>
<path d="M144.802 20.7387C145.009 20.9487 144.99 21.2847 144.769 21.4779C142.862 23.1635 140.473 23.9503 137.895 23.9503C130.788 23.9503 127.781 19.0587 127.753 14.0831C127.725 9.07955 130.979 3.99756 137.895 3.99756C140.317 3.99756 142.621 4.85436 144.517 6.54556C144.738 6.74436 144.752 7.08315 144.539 7.29035L142.851 8.91995C142.669 9.09635 142.38 9.11035 142.184 8.94795C140.969 7.92315 139.421 7.44155 137.895 7.44155C133.275 7.44155 131.278 10.8855 131.306 14.0831C131.334 17.2527 133.166 20.5623 137.895 20.5623C139.418 20.5623 141.126 19.9911 142.369 18.9299C142.568 18.7619 142.862 18.7787 143.044 18.9635L144.799 20.7387H144.802Z" fill="white"/>
<path d="M170.612 24.0513C165.11 29.5533 156.189 29.5533 150.687 24.0513C145.185 18.5493 145.185 9.62848 150.687 4.12649C156.189 -1.3755 165.11 -1.3755 170.612 4.12649C176.114 9.62848 176.114 18.5493 170.612 24.0513ZM169.324 7.80008L170.211 6.91248C170.396 6.72768 170.407 6.43648 170.242 6.23208C169.985 5.91848 169.713 5.61048 169.419 5.31929C169.125 5.02529 168.82 4.75089 168.506 4.49609C168.305 4.33089 168.011 4.34209 167.826 4.52689L166.938 5.41448C167.389 5.74208 167.82 6.10608 168.226 6.51208C168.632 6.91808 168.999 7.34928 169.327 7.80008L161.8 15.3265C161.181 15.9453 160.204 15.9817 159.541 15.4413C159.496 15.4049 159.454 15.3657 159.412 15.3265C159.37 15.2845 159.333 15.2425 159.297 15.1977C158.757 14.5341 158.796 13.5569 159.412 12.9381L166.938 5.41168C162.579 2.2421 156.368 2.7685 152.622 6.99088C149.069 10.9949 149.057 17.1353 152.594 21.1533C156.721 25.8433 163.878 26.0141 168.226 21.6657C172.003 17.8885 172.37 11.9917 169.327 7.80008" fill="#60C4B0"/>
<path d="M193.626 22.6766L188.365 16.735C191.999 15.9958 193.203 13.3442 193.203 10.7206C193.203 7.41378 190.826 4.40659 186.315 4.37859C183.451 4.37859 180.583 4.35339 177.716 4.35059C177.439 4.35059 177.212 4.57739 177.212 4.85459V23.0098C177.212 23.287 177.439 23.5138 177.716 23.5138H180.317C180.595 23.5138 180.821 23.2898 180.821 23.0098V17.1158H184.484L189.882 23.3374C189.977 23.4466 190.117 23.511 190.263 23.511H193.251C193.685 23.511 193.914 22.9986 193.626 22.6738M180.819 13.8622V7.74138H186.312C188.58 7.74138 189.594 9.27298 189.594 10.8018C189.594 12.3306 188.608 13.8622 186.312 13.8622H180.819Z" fill="white"/>
<path d="M32.2953 22.8304L25.3765 4.70322C25.3009 4.50722 25.1161 4.37842 24.9061 4.37842H21.7365C21.5293 4.37842 21.3417 4.50722 21.2661 4.70322L14.3474 22.8304C14.2214 23.1608 14.465 23.5136 14.8178 23.5136H17.6038C17.811 23.5136 17.9986 23.3848 18.0742 23.1888L23.3241 9.43801L28.5741 23.1888C28.6497 23.3848 28.8345 23.5136 29.0445 23.5136H31.8305C32.1833 23.5136 32.4269 23.1608 32.3009 22.8304" fill="white"/>
</svg>
