<svg width="29" height="29" viewBox="0 0 29 29" fill="none" xmlns="http://www.w3.org/2000/svg">
<path d="M24.6118 24.0513C19.1098 29.5533 10.189 29.5533 4.68704 24.0513C-0.814952 18.5493 -0.814952 9.62848 4.68704 4.12649C10.189 -1.3755 19.1098 -1.3755 24.6118 4.12649C30.1138 9.62848 30.1138 18.5493 24.6118 24.0513ZM23.3238 7.80008L24.2114 6.91248C24.3962 6.72768 24.4074 6.43648 24.2422 6.23208C23.9846 5.91848 23.713 5.61048 23.419 5.31928C23.125 5.02529 22.8198 4.75089 22.5062 4.49609C22.3046 4.33089 22.0106 4.34209 21.8258 4.52689L20.9382 5.41448C21.389 5.74208 21.8202 6.10608 22.2262 6.51208C22.6322 6.91808 22.999 7.34928 23.3266 7.80008L15.8002 15.3265C15.1814 15.9453 14.2042 15.9817 13.5406 15.4413C13.4958 15.4049 13.4538 15.3657 13.4118 15.3265C13.3698 15.2845 13.3334 15.2425 13.297 15.1977C12.7566 14.5341 12.7958 13.5569 13.4118 12.9381L20.9382 5.41168C16.5786 2.2421 10.3682 2.7685 6.62185 6.99088C3.06865 10.9949 3.05744 17.1353 6.59384 21.1533C10.721 25.8433 17.8778 26.0141 22.2262 21.6657C26.0034 17.8885 26.3702 11.9917 23.3266 7.80008" fill="#60C4B0"/>
</svg>
